<svg width="31" height="33" viewBox="0 0 31 33" fill="none" xmlns="http://www.w3.org/2000/svg">
<path d="M30.6379 15.9998C30.6379 18.326 30.2549 20.4678 29.489 22.4253C28.723 24.3827 27.6592 26.0848 26.2975 27.5316C24.9075 28.9784 23.2905 30.0989 21.4465 30.8932C19.5742 31.6876 17.5317 32.0847 15.3189 32.0847C13.1062 32.0847 11.0779 31.6876 9.23392 30.8932C7.36161 30.0989 5.74461 28.9784 4.38292 27.5316C2.99287 26.0848 1.91487 24.3827 1.14892 22.4253C0.382974 20.4678 0 18.3402 0 16.0424C0 13.7162 0.382974 11.5885 1.14892 9.65948C1.91487 7.70205 2.99287 5.99995 4.38292 4.55316C5.74461 3.10637 7.36161 1.98582 9.23392 1.1915C11.0779 0.397188 13.1062 3.05176e-05 15.3189 3.05176e-05C17.5317 3.05176e-05 19.5742 0.397188 21.4465 1.1915C23.3188 1.98582 24.9358 3.10637 26.2975 4.55316C27.6592 5.99995 28.723 7.70205 29.489 9.65948C30.2549 11.5885 30.6379 13.702 30.6379 15.9998ZM25.7869 16.0424C25.7869 14.5388 25.5316 13.1488 25.0209 11.8722C24.5103 10.5956 23.7869 9.48927 22.8508 8.55311C21.8862 7.61695 20.7799 6.89356 19.5317 6.38293C18.2551 5.84393 16.8508 5.57442 15.3189 5.57442C13.7871 5.57442 12.397 5.84393 11.1488 6.38293C9.87221 6.89356 8.76584 7.61695 7.82969 8.55311C6.86516 9.48927 6.12758 10.5956 5.61695 11.8722C5.10632 13.1488 4.851 14.5388 4.851 16.0424C4.851 17.5459 5.10632 18.936 5.61695 20.2125C6.12758 21.4607 6.86516 22.5671 7.82969 23.5316C8.76584 24.4678 9.87221 25.2054 11.1488 25.7444C12.397 26.255 13.7871 26.5103 15.3189 26.5103C16.8225 26.5103 18.2125 26.255 19.4891 25.7444C20.7657 25.2054 21.8862 24.4678 22.8508 23.5316C23.7869 22.5955 24.5103 21.4891 25.0209 20.2125C25.5316 18.936 25.7869 17.5459 25.7869 16.0424Z" fill="#3A89FF"/>
<path d="M29.4323 16.7303C29.4323 18.9273 29.1241 21.0305 28.5079 23.0399C27.8649 25.0493 27.0477 26.6435 26.0564 27.8224L21.9974 26.0139C22.8815 24.8886 23.6183 23.4954 24.2077 21.8343C24.7972 20.1731 25.0919 18.4718 25.0919 16.7303C25.0919 15.2567 24.9311 14.0645 24.6096 13.1535C24.2881 12.2426 23.8594 11.5728 23.3236 11.1441C22.7609 10.7154 22.1313 10.5011 21.4347 10.5011C20.5774 10.5011 19.8942 10.8092 19.3851 11.4254C18.8493 12.0416 18.434 12.8454 18.1393 13.8367C17.8177 14.8013 17.523 15.8863 17.2551 17.092C16.9872 18.2709 16.6791 19.4631 16.3308 20.6688C15.9557 21.8477 15.4868 22.9327 14.9242 23.9241C14.3347 24.8886 13.5578 25.679 12.5932 26.2952C11.6287 26.9114 10.3963 27.2195 8.89588 27.2195C7.36871 27.2195 5.97551 26.8176 4.71627 26.0139C3.43023 25.1833 2.41212 23.9375 1.66193 22.2763C0.884952 20.5884 0.496463 18.4584 0.496463 15.8863C0.496463 14.1984 0.710802 12.5239 1.13948 10.8628C1.56816 9.20164 2.18438 7.75485 2.98816 6.52241L7.0472 8.17014C6.29702 9.42938 5.74777 10.7288 5.39947 12.0684C5.02438 13.4081 4.83683 14.6941 4.83683 15.9265C4.83683 17.3733 5.01098 18.5522 5.35928 19.4631C5.70758 20.3473 6.16306 21.0037 6.7257 21.4324C7.28834 21.8343 7.93135 22.0352 8.65475 22.0352C9.5121 22.0352 10.2087 21.7405 10.7446 21.1511C11.2536 20.5348 11.6555 19.7445 11.9502 18.7799C12.2449 17.7886 12.5396 16.6901 12.8344 15.4845C13.1023 14.2788 13.4104 13.0865 13.7587 11.9077C14.107 10.702 14.5625 9.61693 15.1251 8.6524C15.6878 7.66108 16.4513 6.8707 17.4159 6.28127C18.3804 5.66505 19.5994 5.35693 21.073 5.35693C22.5734 5.35693 23.9666 5.77222 25.2526 6.60278C26.5119 7.40655 27.53 8.6524 28.307 10.3403C29.0572 12.0282 29.4323 14.1582 29.4323 16.7303Z" fill="#3A89FF"/>
</svg>
