<svg width="259" height="52" viewBox="0 0 259 52" fill="none" xmlns="http://www.w3.org/2000/svg">
<path d="M46.9469 15.5599C48.4829 15.5599 49.8509 15.8599 51.0509 16.4599C52.2749 17.0599 53.2349 17.9839 53.9309 19.2319C54.6269 20.4559 54.9749 22.0399 54.9749 23.9839V34.9999H50.4749V24.5599C50.4749 22.8559 50.0669 21.5839 49.2509 20.7439C48.4589 19.9039 47.3429 19.4839 45.9029 19.4839C44.8469 19.4839 43.9109 19.6999 43.0949 20.1319C42.2789 20.5639 41.6429 21.2119 41.1869 22.0759C40.7549 22.9159 40.5389 23.9839 40.5389 25.2799V34.9999H36.0389V15.7759H40.3229V20.9599L39.5669 19.3759C40.2389 18.1519 41.2109 17.2159 42.4829 16.5679C43.7789 15.8959 45.2669 15.5599 46.9469 15.5599ZM60.6834 34.9999V8.28794H65.1834V34.9999H60.6834ZM71.0897 34.9999V15.7759H75.5897V34.9999H71.0897ZM73.3577 12.6079C72.5177 12.6079 71.8217 12.3439 71.2697 11.8159C70.7417 11.2879 70.4777 10.6519 70.4777 9.90794C70.4777 9.13994 70.7417 8.50394 71.2697 7.99994C71.8217 7.47194 72.5177 7.20794 73.3577 7.20794C74.1977 7.20794 74.8817 7.45994 75.4097 7.96394C75.9617 8.44394 76.2377 9.05594 76.2377 9.79994C76.2377 10.5919 75.9737 11.2639 75.4457 11.8159C74.9177 12.3439 74.2217 12.6079 73.3577 12.6079ZM92.4039 15.5599C93.9399 15.5599 95.3079 15.8599 96.5079 16.4599C97.7319 17.0599 98.6919 17.9839 99.3879 19.2319C100.084 20.4559 100.432 22.0399 100.432 23.9839V34.9999H95.9319V24.5599C95.9319 22.8559 95.5239 21.5839 94.7079 20.7439C93.9159 19.9039 92.7999 19.4839 91.3599 19.4839C90.3039 19.4839 89.3679 19.6999 88.5519 20.1319C87.7359 20.5639 87.0999 21.2119 86.6439 22.0759C86.2119 22.9159 85.9959 23.9839 85.9959 25.2799V34.9999H81.4959V15.7759H85.7799V20.9599L85.0239 19.3759C85.6959 18.1519 86.6679 17.2159 87.9399 16.5679C89.2359 15.8959 90.7239 15.5599 92.4039 15.5599ZM115.212 35.2519C113.076 35.2519 111.204 34.8319 109.596 33.9919C108.012 33.1279 106.776 31.9519 105.888 30.4639C105.024 28.9759 104.592 27.2839 104.592 25.3879C104.592 23.4679 105.012 21.7759 105.852 20.3119C106.716 18.8239 107.892 17.6599 109.38 16.8199C110.892 15.9799 112.608 15.5599 114.528 15.5599C116.4 15.5599 118.068 15.9679 119.532 16.7839C120.996 17.5999 122.148 18.7519 122.988 20.2399C123.828 21.7279 124.248 23.4799 124.248 25.4959C124.248 25.6879 124.236 25.9039 124.212 26.1439C124.212 26.3839 124.2 26.6119 124.176 26.8279H108.156V23.8399H121.8L120.036 24.7759C120.06 23.6719 119.832 22.6999 119.352 21.8599C118.872 21.0199 118.212 20.3599 117.372 19.8799C116.556 19.3999 115.608 19.1599 114.528 19.1599C113.424 19.1599 112.452 19.3999 111.612 19.8799C110.796 20.3599 110.148 21.0319 109.668 21.8959C109.212 22.7359 108.984 23.7319 108.984 24.8839V25.6039C108.984 26.7559 109.248 27.7759 109.776 28.6639C110.304 29.5519 111.048 30.2359 112.008 30.7159C112.968 31.1959 114.072 31.4359 115.32 31.4359C116.4 31.4359 117.372 31.2679 118.236 30.9319C119.1 30.5959 119.868 30.0679 120.54 29.3479L122.952 32.1199C122.088 33.1279 120.996 33.9079 119.676 34.4599C118.38 34.9879 116.892 35.2519 115.212 35.2519ZM158.447 35.2519C156.335 35.2519 154.703 34.7119 153.551 33.6319C152.399 32.5279 151.823 30.9079 151.823 28.7719V11.5279H156.323V28.6639C156.323 29.5759 156.551 30.2839 157.007 30.7879C157.487 31.2919 158.147 31.5439 158.987 31.5439C159.995 31.5439 160.835 31.2799 161.507 30.7519L162.767 33.9559C162.239 34.3879 161.591 34.7119 160.823 34.9279C160.055 35.1439 159.263 35.2519 158.447 35.2519ZM148.655 19.5199V15.9199H161.471V19.5199H148.655ZM174.476 35.2519C172.508 35.2519 170.756 34.8319 169.22 33.9919C167.684 33.1279 166.472 31.9519 165.584 30.4639C164.696 28.9759 164.252 27.2839 164.252 25.3879C164.252 23.4679 164.696 21.7759 165.584 20.3119C166.472 18.8239 167.684 17.6599 169.22 16.8199C170.756 15.9799 172.508 15.5599 174.476 15.5599C176.468 15.5599 178.232 15.9799 179.768 16.8199C181.328 17.6599 182.54 18.8119 183.404 20.2759C184.292 21.7399 184.736 23.4439 184.736 25.3879C184.736 27.2839 184.292 28.9759 183.404 30.4639C182.54 31.9519 181.328 33.1279 179.768 33.9919C178.232 34.8319 176.468 35.2519 174.476 35.2519ZM174.476 31.3999C175.58 31.3999 176.564 31.1599 177.428 30.6799C178.292 30.1999 178.964 29.5039 179.444 28.5919C179.948 27.6799 180.2 26.6119 180.2 25.3879C180.2 24.1399 179.948 23.0719 179.444 22.1839C178.964 21.2719 178.292 20.5759 177.428 20.0959C176.564 19.6159 175.592 19.3759 174.512 19.3759C173.408 19.3759 172.424 19.6159 171.56 20.0959C170.72 20.5759 170.048 21.2719 169.544 22.1839C169.04 23.0719 168.788 24.1399 168.788 25.3879C168.788 26.6119 169.04 27.6799 169.544 28.5919C170.048 29.5039 170.72 30.1999 171.56 30.6799C172.424 31.1599 173.396 31.3999 174.476 31.3999ZM189.039 34.9999V15.7759H193.323V21.0679L192.819 19.5199C193.395 18.2239 194.295 17.2399 195.519 16.5679C196.767 15.8959 198.315 15.5599 200.163 15.5599V19.8439C199.971 19.7959 199.791 19.7719 199.623 19.7719C199.455 19.7479 199.287 19.7359 199.119 19.7359C197.415 19.7359 196.059 20.2399 195.051 21.2479C194.043 22.2319 193.539 23.7079 193.539 25.6759V34.9999H189.039ZM212.841 35.2519C210.705 35.2519 208.833 34.8319 207.225 33.9919C205.641 33.1279 204.405 31.9519 203.517 30.4639C202.653 28.9759 202.221 27.2839 202.221 25.3879C202.221 23.4679 202.641 21.7759 203.481 20.3119C204.345 18.8239 205.521 17.6599 207.009 16.8199C208.521 15.9799 210.237 15.5599 212.157 15.5599C214.029 15.5599 215.697 15.9679 217.161 16.7839C218.625 17.5999 219.777 18.7519 220.617 20.2399C221.457 21.7279 221.877 23.4799 221.877 25.4959C221.877 25.6879 221.865 25.9039 221.841 26.1439C221.841 26.3839 221.829 26.6119 221.805 26.8279H205.785V23.8399H219.429L217.665 24.7759C217.689 23.6719 217.461 22.6999 216.981 21.8599C216.501 21.0199 215.841 20.3599 215.001 19.8799C214.185 19.3999 213.237 19.1599 212.157 19.1599C211.053 19.1599 210.081 19.3999 209.241 19.8799C208.425 20.3599 207.777 21.0319 207.297 21.8959C206.841 22.7359 206.613 23.7319 206.613 24.8839V25.6039C206.613 26.7559 206.877 27.7759 207.405 28.6639C207.933 29.5519 208.677 30.2359 209.637 30.7159C210.597 31.1959 211.701 31.4359 212.949 31.4359C214.029 31.4359 215.001 31.2679 215.865 30.9319C216.729 30.5959 217.497 30.0679 218.169 29.3479L220.581 32.1199C219.717 33.1279 218.625 33.9079 217.305 34.4599C216.009 34.9879 214.521 35.2519 212.841 35.2519Z" fill="white"/>
<path d="M136.814 35.3599C134.846 35.3599 132.962 35.0839 131.162 34.5319C129.362 33.9559 127.934 33.2239 126.878 32.3359L128.498 28.6999C129.506 29.4919 130.754 30.1519 132.242 30.6799C133.73 31.2079 135.254 31.4719 136.814 31.4719C138.134 31.4719 139.202 31.3279 140.018 31.0399C140.834 30.7519 141.434 30.3679 141.818 29.8879C142.202 29.3839 142.394 28.8199 142.394 28.1959C142.394 27.4279 142.118 26.8159 141.566 26.3599C141.014 25.8799 140.294 25.5079 139.406 25.2439C138.542 24.9559 137.57 24.6919 136.49 24.4519C135.434 24.2119 134.366 23.9359 133.286 23.6239C132.23 23.2879 131.258 22.8679 130.37 22.3639C129.506 21.8359 128.798 21.1399 128.246 20.2759C127.694 19.4119 127.418 18.3079 127.418 16.9639C127.418 15.5959 127.778 14.3479 128.498 13.2199C129.242 12.0679 130.358 11.1559 131.846 10.4839C133.358 9.78794 135.266 9.43994 137.57 9.43994C139.082 9.43994 140.582 9.63194 142.07 10.0159C143.558 10.3999 144.854 10.9519 145.958 11.6719L144.482 15.3079C143.354 14.6359 142.19 14.1439 140.99 13.8319C139.79 13.4959 138.638 13.3279 137.534 13.3279C136.238 13.3279 135.182 13.4839 134.366 13.7959C133.574 14.1079 132.986 14.5159 132.602 15.0199C132.242 15.5239 132.062 16.0999 132.062 16.7479C132.062 17.5159 132.326 18.1399 132.854 18.6199C133.406 19.0759 134.114 19.4359 134.978 19.6999C135.866 19.9639 136.85 20.2279 137.93 20.4919C139.01 20.7319 140.078 21.0079 141.134 21.3199C142.214 21.6319 143.186 22.0399 144.05 22.5439C144.938 23.0479 145.646 23.7319 146.174 24.5959C146.726 25.4599 147.002 26.5519 147.002 27.8719C147.002 29.2159 146.63 30.4639 145.886 31.6159C145.166 32.7439 144.05 33.6559 142.538 34.3519C141.026 35.0239 139.118 35.3599 136.814 35.3599Z" fill="#3A89FF"/>
<path d="M30.6379 24.7522C30.6379 27.0784 30.2549 29.2202 29.489 31.1776C28.723 33.1351 27.6592 34.8372 26.2975 36.284C24.9075 37.7308 23.2905 38.8513 21.4465 39.6456C19.5742 40.4399 17.5317 40.8371 15.3189 40.8371C13.1062 40.8371 11.0779 40.4399 9.23392 39.6456C7.36161 38.8513 5.74461 37.7308 4.38292 36.284C2.99287 34.8372 1.91487 33.1351 1.14892 31.1776C0.382974 29.2202 0 27.0926 0 24.7948C0 22.4685 0.382974 20.3409 1.14892 18.4119C1.91487 16.4544 2.99287 14.7523 4.38292 13.3055C5.74461 11.8588 7.36161 10.7382 9.23392 9.94388C11.0779 9.14957 13.1062 8.75241 15.3189 8.75241C17.5317 8.75241 19.5742 9.14957 21.4465 9.94388C23.3188 10.7382 24.9358 11.8588 26.2975 13.3055C27.6592 14.7523 28.723 16.4544 29.489 18.4119C30.2549 20.3409 30.6379 22.4544 30.6379 24.7522ZM25.7869 24.7948C25.7869 23.2912 25.5316 21.9012 25.0209 20.6246C24.5103 19.348 23.7869 18.2416 22.8508 17.3055C21.8862 16.3693 20.7799 15.6459 19.5317 15.1353C18.2551 14.5963 16.8508 14.3268 15.3189 14.3268C13.7871 14.3268 12.397 14.5963 11.1488 15.1353C9.87221 15.6459 8.76584 16.3693 7.82969 17.3055C6.86516 18.2416 6.12758 19.348 5.61695 20.6246C5.10632 21.9012 4.851 23.2912 4.851 24.7948C4.851 26.2983 5.10632 27.6883 5.61695 28.9649C6.12758 30.2131 6.86516 31.3195 7.82969 32.284C8.76584 33.2202 9.87221 33.9578 11.1488 34.4968C12.397 35.0074 13.7871 35.2627 15.3189 35.2627C16.8225 35.2627 18.2125 35.0074 19.4891 34.4968C20.7657 33.9578 21.8862 33.2202 22.8508 32.284C23.7869 31.3479 24.5103 30.2415 25.0209 28.9649C25.5316 27.6883 25.7869 26.2983 25.7869 24.7948Z" fill="#3A89FF"/>
<path d="M29.4323 25.4827C29.4323 27.6797 29.1241 29.7829 28.5079 31.7923C27.8649 33.8017 27.0477 35.3959 26.0564 36.5747L21.9974 34.7663C22.8815 33.641 23.6183 32.2478 24.2077 30.5866C24.7972 28.9255 25.0919 27.2242 25.0919 25.4827C25.0919 24.0091 24.9311 22.8168 24.6096 21.9059C24.2881 20.995 23.8594 20.3252 23.3236 19.8965C22.7609 19.4678 22.1313 19.2535 21.4347 19.2535C20.5774 19.2535 19.8942 19.5616 19.3851 20.1778C18.8493 20.794 18.434 21.5978 18.1393 22.5891C17.8177 23.5536 17.523 24.6387 17.2551 25.8444C16.9872 27.0233 16.6791 28.2155 16.3308 29.4212C15.9557 30.6 15.4868 31.6851 14.9242 32.6764C14.3347 33.641 13.5578 34.4313 12.5932 35.0476C11.6287 35.6638 10.3963 35.9719 8.89588 35.9719C7.36871 35.9719 5.97551 35.57 4.71627 34.7663C3.43023 33.9357 2.41212 32.6898 1.66193 31.0287C0.884952 29.3408 0.496463 27.2108 0.496463 24.6387C0.496463 22.9508 0.710802 21.2763 1.13948 19.6152C1.56816 17.954 2.18438 16.5072 2.98816 15.2748L7.0472 16.9225C6.29702 18.1818 5.74777 19.4812 5.39947 20.8208C5.02438 22.1604 4.83683 23.4465 4.83683 24.6789C4.83683 26.1257 5.01098 27.3046 5.35928 28.2155C5.70758 29.0997 6.16306 29.7561 6.7257 30.1848C7.28834 30.5866 7.93135 30.7876 8.65475 30.7876C9.5121 30.7876 10.2087 30.4929 10.7446 29.9034C11.2536 29.2872 11.6555 28.4968 11.9502 27.5323C12.2449 26.541 12.5396 25.4425 12.8344 24.2368C13.1023 23.0312 13.4104 21.8389 13.7587 20.6601C14.107 19.4544 14.5625 18.3693 15.1251 17.4048C15.6878 16.4135 16.4513 15.6231 17.4159 15.0337C18.3804 14.4174 19.5994 14.1093 21.073 14.1093C22.5734 14.1093 23.9666 14.5246 25.2526 15.3552C26.5119 16.1589 27.53 17.4048 28.307 19.0927C29.0572 20.7806 29.4323 22.9106 29.4323 25.4827Z" fill="#3A89FF"/>
</svg>
