<svg width="258" height="53" viewBox="0 0 258 53" fill="none" xmlns="http://www.w3.org/2000/svg">
<path d="M45.8795 16.027C47.4155 16.027 48.7835 16.327 49.9835 16.927C51.2075 17.527 52.1675 18.451 52.8635 19.699C53.5595 20.923 53.9075 22.507 53.9075 24.451V35.467H49.4075V25.027C49.4075 23.323 48.9995 22.051 48.1835 21.211C47.3915 20.371 46.2755 19.951 44.8355 19.951C43.7795 19.951 42.8435 20.167 42.0275 20.599C41.2115 21.031 40.5755 21.679 40.1195 22.543C39.6875 23.383 39.4715 24.451 39.4715 25.747V35.467H34.9715V16.243H39.2555V21.427L38.4995 19.843C39.1715 18.619 40.1435 17.683 41.4155 17.035C42.7115 16.363 44.1995 16.027 45.8795 16.027ZM59.6161 35.467V8.75504H64.1161V35.467H59.6161ZM70.0223 35.467V16.243H74.5223V35.467H70.0223ZM72.2903 13.075C71.4503 13.075 70.7543 12.811 70.2023 12.283C69.6743 11.755 69.4103 11.119 69.4103 10.375C69.4103 9.60704 69.6743 8.97104 70.2023 8.46704C70.7543 7.93904 71.4503 7.67504 72.2903 7.67504C73.1303 7.67504 73.8143 7.92704 74.3423 8.43104C74.8943 8.91104 75.1703 9.52304 75.1703 10.267C75.1703 11.059 74.9063 11.731 74.3783 12.283C73.8503 12.811 73.1543 13.075 72.2903 13.075ZM91.3366 16.027C92.8726 16.027 94.2406 16.327 95.4406 16.927C96.6646 17.527 97.6246 18.451 98.3206 19.699C99.0166 20.923 99.3646 22.507 99.3646 24.451V35.467H94.8646V25.027C94.8646 23.323 94.4566 22.051 93.6406 21.211C92.8486 20.371 91.7326 19.951 90.2926 19.951C89.2366 19.951 88.3006 20.167 87.4846 20.599C86.6686 21.031 86.0326 21.679 85.5766 22.543C85.1446 23.383 84.9286 24.451 84.9286 25.747V35.467H80.4286V16.243H84.7126V21.427L83.9566 19.843C84.6286 18.619 85.6006 17.683 86.8726 17.035C88.1686 16.363 89.6566 16.027 91.3366 16.027ZM114.144 35.719C112.008 35.719 110.136 35.299 108.528 34.459C106.944 33.595 105.708 32.419 104.82 30.931C103.956 29.443 103.524 27.751 103.524 25.855C103.524 23.935 103.944 22.243 104.784 20.779C105.648 19.291 106.824 18.127 108.312 17.287C109.824 16.447 111.54 16.027 113.46 16.027C115.332 16.027 117 16.435 118.464 17.251C119.928 18.067 121.08 19.219 121.92 20.707C122.76 22.195 123.18 23.947 123.18 25.963C123.18 26.155 123.168 26.371 123.144 26.611C123.144 26.851 123.132 27.079 123.108 27.295H107.088V24.307H120.732L118.968 25.243C118.992 24.139 118.764 23.167 118.284 22.327C117.804 21.487 117.144 20.827 116.304 20.347C115.488 19.867 114.54 19.627 113.46 19.627C112.356 19.627 111.384 19.867 110.544 20.347C109.728 20.827 109.08 21.499 108.6 22.363C108.144 23.203 107.916 24.199 107.916 25.351V26.071C107.916 27.223 108.18 28.243 108.708 29.131C109.236 30.019 109.98 30.703 110.94 31.183C111.9 31.663 113.004 31.903 114.252 31.903C115.332 31.903 116.304 31.735 117.168 31.399C118.032 31.063 118.8 30.535 119.472 29.815L121.884 32.587C121.02 33.595 119.928 34.375 118.608 34.927C117.312 35.455 115.824 35.719 114.144 35.719ZM157.379 35.719C155.267 35.719 153.635 35.179 152.483 34.099C151.331 32.995 150.755 31.375 150.755 29.239V11.995H155.255V29.131C155.255 30.043 155.483 30.751 155.939 31.255C156.419 31.759 157.079 32.011 157.919 32.011C158.927 32.011 159.767 31.747 160.439 31.219L161.699 34.423C161.171 34.855 160.523 35.179 159.755 35.395C158.987 35.611 158.195 35.719 157.379 35.719ZM147.587 19.987V16.387H160.403V19.987H147.587ZM173.408 35.719C171.44 35.719 169.688 35.299 168.152 34.459C166.616 33.595 165.404 32.419 164.516 30.931C163.628 29.443 163.184 27.751 163.184 25.855C163.184 23.935 163.628 22.243 164.516 20.779C165.404 19.291 166.616 18.127 168.152 17.287C169.688 16.447 171.44 16.027 173.408 16.027C175.4 16.027 177.164 16.447 178.7 17.287C180.26 18.127 181.472 19.279 182.336 20.743C183.224 22.207 183.668 23.911 183.668 25.855C183.668 27.751 183.224 29.443 182.336 30.931C181.472 32.419 180.26 33.595 178.7 34.459C177.164 35.299 175.4 35.719 173.408 35.719ZM173.408 31.867C174.512 31.867 175.496 31.627 176.36 31.147C177.224 30.667 177.896 29.971 178.376 29.059C178.88 28.147 179.132 27.079 179.132 25.855C179.132 24.607 178.88 23.539 178.376 22.651C177.896 21.739 177.224 21.043 176.36 20.563C175.496 20.083 174.524 19.843 173.444 19.843C172.34 19.843 171.356 20.083 170.492 20.563C169.652 21.043 168.98 21.739 168.476 22.651C167.972 23.539 167.72 24.607 167.72 25.855C167.72 27.079 167.972 28.147 168.476 29.059C168.98 29.971 169.652 30.667 170.492 31.147C171.356 31.627 172.328 31.867 173.408 31.867ZM187.972 35.467V16.243H192.256V21.535L191.752 19.987C192.328 18.691 193.228 17.707 194.452 17.035C195.7 16.363 197.248 16.027 199.096 16.027V20.311C198.904 20.263 198.724 20.239 198.556 20.239C198.388 20.215 198.22 20.203 198.052 20.203C196.348 20.203 194.992 20.707 193.984 21.715C192.976 22.699 192.472 24.175 192.472 26.143V35.467H187.972ZM211.773 35.719C209.637 35.719 207.765 35.299 206.157 34.459C204.573 33.595 203.337 32.419 202.449 30.931C201.585 29.443 201.153 27.751 201.153 25.855C201.153 23.935 201.573 22.243 202.413 20.779C203.277 19.291 204.453 18.127 205.941 17.287C207.453 16.447 209.169 16.027 211.089 16.027C212.961 16.027 214.629 16.435 216.093 17.251C217.557 18.067 218.709 19.219 219.549 20.707C220.389 22.195 220.809 23.947 220.809 25.963C220.809 26.155 220.797 26.371 220.773 26.611C220.773 26.851 220.761 27.079 220.737 27.295H204.717V24.307H218.361L216.597 25.243C216.621 24.139 216.393 23.167 215.913 22.327C215.433 21.487 214.773 20.827 213.933 20.347C213.117 19.867 212.169 19.627 211.089 19.627C209.985 19.627 209.013 19.867 208.173 20.347C207.357 20.827 206.709 21.499 206.229 22.363C205.773 23.203 205.545 24.199 205.545 25.351V26.071C205.545 27.223 205.809 28.243 206.337 29.131C206.865 30.019 207.609 30.703 208.569 31.183C209.529 31.663 210.633 31.903 211.881 31.903C212.961 31.903 213.933 31.735 214.797 31.399C215.661 31.063 216.429 30.535 217.101 29.815L219.513 32.587C218.649 33.595 217.557 34.375 216.237 34.927C214.941 35.455 213.453 35.719 211.773 35.719Z" fill="#131E2F"/>
<path d="M135.747 35.827C133.779 35.827 131.895 35.551 130.095 34.999C128.295 34.423 126.867 33.691 125.811 32.803L127.431 29.167C128.439 29.959 129.687 30.619 131.175 31.147C132.663 31.675 134.187 31.939 135.747 31.939C137.067 31.939 138.135 31.795 138.951 31.507C139.767 31.219 140.367 30.835 140.751 30.355C141.135 29.851 141.327 29.287 141.327 28.663C141.327 27.895 141.051 27.283 140.499 26.827C139.947 26.347 139.227 25.975 138.339 25.711C137.475 25.423 136.503 25.159 135.423 24.919C134.367 24.679 133.299 24.403 132.219 24.091C131.163 23.755 130.191 23.335 129.303 22.831C128.439 22.303 127.731 21.607 127.179 20.743C126.627 19.879 126.351 18.775 126.351 17.431C126.351 16.063 126.711 14.815 127.431 13.687C128.175 12.535 129.291 11.623 130.779 10.951C132.291 10.255 134.199 9.90704 136.503 9.90704C138.015 9.90704 139.515 10.099 141.003 10.483C142.491 10.867 143.787 11.419 144.891 12.139L143.415 15.775C142.287 15.103 141.123 14.611 139.923 14.299C138.723 13.963 137.571 13.795 136.467 13.795C135.171 13.795 134.115 13.951 133.299 14.263C132.507 14.575 131.919 14.983 131.535 15.487C131.175 15.991 130.995 16.567 130.995 17.215C130.995 17.983 131.259 18.607 131.787 19.087C132.339 19.543 133.047 19.903 133.911 20.167C134.799 20.431 135.783 20.695 136.863 20.959C137.943 21.199 139.011 21.475 140.067 21.787C141.147 22.099 142.119 22.507 142.983 23.011C143.871 23.515 144.579 24.199 145.107 25.063C145.659 25.927 145.935 27.019 145.935 28.339C145.935 29.683 145.563 30.931 144.819 32.083C144.099 33.211 142.983 34.123 141.471 34.819C139.959 35.491 138.051 35.827 135.747 35.827Z" fill="#3A89FF"/>
<path d="M31.362 25.7984C31.362 28.1246 30.979 30.2664 30.2131 32.2239C29.4471 34.1813 28.3833 35.8834 27.0216 37.3302C25.6316 38.777 24.0146 39.8975 22.1706 40.6918C20.2983 41.4861 18.2558 41.8833 16.0431 41.8833C13.8303 41.8833 11.802 41.4861 9.95804 40.6918C8.08573 39.8975 6.46873 38.777 5.10704 37.3302C3.71699 35.8834 2.63899 34.1813 1.87304 32.2239C1.10709 30.2664 0.724121 28.1388 0.724121 25.841C0.724121 23.5147 1.10709 21.3871 1.87304 19.4581C2.63899 17.5006 3.71699 15.7985 5.10704 14.3517C6.46873 12.905 8.08573 11.7844 9.95804 10.9901C11.802 10.1958 13.8303 9.79861 16.0431 9.79861C18.2558 9.79861 20.2983 10.1958 22.1706 10.9901C24.043 11.7844 25.66 12.905 27.0216 14.3517C28.3833 15.7985 29.4471 17.5006 30.2131 19.4581C30.979 21.3871 31.362 23.5006 31.362 25.7984ZM26.511 25.841C26.511 24.3374 26.2557 22.9474 25.7451 21.6708C25.2344 20.3942 24.511 19.2879 23.5749 18.3517C22.6104 17.4155 21.504 16.6921 20.2558 16.1815C18.9792 15.6425 17.575 15.373 16.0431 15.373C14.5112 15.373 13.1211 15.6425 11.8729 16.1815C10.5963 16.6921 9.48996 17.4155 8.55381 18.3517C7.58928 19.2879 6.8517 20.3942 6.34107 21.6708C5.83044 22.9474 5.57512 24.3374 5.57512 25.841C5.57512 27.3445 5.83044 28.7345 6.34107 30.0111C6.8517 31.2593 7.58928 32.3657 8.55381 33.3302C9.48996 34.2664 10.5963 35.004 11.8729 35.543C13.1211 36.0536 14.5112 36.3089 16.0431 36.3089C17.5466 36.3089 18.9366 36.0536 20.2132 35.543C21.4898 35.004 22.6104 34.2664 23.5749 33.3302C24.511 32.3941 25.2344 31.2877 25.7451 30.0111C26.2557 28.7345 26.511 27.3445 26.511 25.841Z" fill="#3A89FF"/>
<path d="M30.1564 26.5289C30.1564 28.7259 29.8483 30.8291 29.232 32.8385C28.589 34.8479 27.7719 36.4421 26.7805 37.6209L22.7215 35.8125C23.6056 34.6872 24.3424 33.294 24.9319 31.6328C25.5213 29.9717 25.816 28.2704 25.816 26.5289C25.816 25.0553 25.6553 23.863 25.3337 22.9521C25.0122 22.0412 24.5836 21.3714 24.0477 20.9427C23.4851 20.514 22.8554 20.2997 22.1588 20.2997C21.3015 20.2997 20.6183 20.6078 20.1092 21.224C19.5734 21.8402 19.1581 22.644 18.8634 23.6353C18.5419 24.5998 18.2472 25.6849 17.9792 26.8906C17.7113 28.0695 17.4032 29.2617 17.0549 30.4674C16.6798 31.6462 16.2109 32.7313 15.6483 33.7227C15.0589 34.6872 14.2819 35.4776 13.3174 36.0938C12.3528 36.71 11.1204 37.0181 9.62 37.0181C8.09283 37.0181 6.69963 36.6162 5.44039 35.8125C4.15435 34.9819 3.13624 33.736 2.38605 32.0749C1.60907 30.387 1.22058 28.257 1.22058 25.6849C1.22058 23.997 1.43492 22.3225 1.8636 20.6614C2.29228 19.0002 2.90851 17.5534 3.71228 16.321L7.77132 17.9687C7.02114 19.228 6.47189 20.5274 6.12359 21.867C5.7485 23.2066 5.56095 24.4927 5.56095 25.7251C5.56095 27.1719 5.7351 28.3508 6.0834 29.2617C6.43171 30.1459 6.88718 30.8023 7.44982 31.231C8.01246 31.6328 8.65547 31.8338 9.37887 31.8338C10.2362 31.8338 10.9328 31.5391 11.4687 30.9496C11.9777 30.3334 12.3796 29.543 12.6743 28.5785C12.9691 27.5872 13.2638 26.4887 13.5585 25.283C13.8264 24.0774 14.1345 22.8851 14.4828 21.7063C14.8311 20.5006 15.2866 19.4155 15.8492 18.451C16.4119 17.4597 17.1755 16.6693 18.14 16.0799C19.1045 15.4636 20.3236 15.1555 21.7971 15.1555C23.2975 15.1555 24.6907 15.5708 25.9768 16.4014C27.236 17.2051 28.2541 18.451 29.0311 20.1389C29.7813 21.8268 30.1564 23.9568 30.1564 26.5289Z" fill="#3A89FF"/>
</svg>
